M48
; DRILL file {KiCad 5.1.9-1.fc33} date Fri Feb 19 03:11:11 2021
; FORMAT={-:-/ absolute / metric / decimal}
; #@! TF.CreationDate,2021-02-19T03:11:11+01:00
; #@! TF.GenerationSoftware,Kicad,Pcbnew,5.1.9-1.fc33
; #@! TF.FileFunction,Plated,1,2,PTH
FMAT,2
METRIC
T1C0.400
T2C0.635
T3C0.800
T4C0.813
T5C0.889
T6C1.016
T7C1.041
T8C1.300
T9C1.500
T10C1.575
T11C2.291
T12C2.600
T13C2.667
T14C3.048
T15C3.051
T16C3.100
%
G90
G05
T1
X46.99Y-140.335
X52.705Y-139.065
X62.23Y-160.655
X64.77Y-159.385
X66.04Y-163.195
X66.421Y-70.104
X68.58Y-143.51
X74.93Y-172.085
X76.2Y-154.94
X88.9Y-154.94
X93.98Y-169.545
X101.282Y-142.982
X104.457Y-164.147
X105.41Y-156.845
X110.49Y-139.7
X110.49Y-144.78
X110.49Y-168.91
X116.522Y-159.702
X116.84Y-129.54
X117.475Y-158.75
X118.11Y-90.17
X118.427Y-168.91
X119.38Y-97.79
X119.38Y-99.06
X119.697Y-121.92
X121.92Y-96.52
X126.365Y-109.22
X132.08Y-109.855
X132.398Y-165.1
X132.715Y-158.75
X133.35Y-97.79
X134.62Y-168.275
X136.525Y-161.29
X136.525Y-180.975
X138.43Y-94.615
X140.97Y-127.0
X143.51Y-123.19
X145.415Y-180.022
X147.32Y-142.24
X147.637Y-124.777
X152.083Y-144.78
X153.078Y-120.65
X154.94Y-115.887
X158.75Y-123.19
X159.067Y-144.463
X160.338Y-140.97
X163.83Y-128.27
X166.37Y-95.25
X166.37Y-151.13
X168.91Y-137.795
X170.18Y-121.92
X178.435Y-185.42
X179.07Y-138.43
X179.705Y-187.96
X180.022Y-162.243
X180.34Y-53.975
X180.34Y-147.32
X180.657Y-185.102
X182.88Y-121.92
X183.832Y-124.142
X185.102Y-140.97
X186.055Y-119.38
X187.325Y-106.045
X188.595Y-113.348
X189.865Y-107.95
X193.04Y-160.02
X193.357Y-117.792
X193.675Y-110.49
X194.203Y-100.33
X194.219Y-135.945
X194.31Y-151.765
X195.58Y-95.25
X198.438Y-128.27
X198.755Y-132.715
X199.072Y-84.138
X199.317Y-130.566
X200.025Y-120.015
X200.66Y-95.567
X201.93Y-95.567
X201.93Y-150.813
X202.248Y-147.637
X202.565Y-88.265
X202.882Y-150.177
X203.087Y-128.792
X203.2Y-95.567
X203.2Y-194.31
X205.105Y-65.405
X206.058Y-65.722
X206.692Y-95.567
X207.486Y-126.206
X208.597Y-112.395
X209.85Y-124.125
X213.36Y-153.67
X214.63Y-58.42
X214.63Y-73.343
X215.9Y-160.338
X215.9Y-165.953
X216.535Y-169.545
X216.568Y-166.392
X217.805Y-98.108
X218.44Y-164.783
X218.757Y-98.108
X219.71Y-98.108
X219.71Y-160.972
X221.404Y-92.392
X221.404Y-94.297
X221.404Y-93.345
X223.52Y-163.195
X224.155Y-106.68
X225.425Y-104.14
X226.377Y-100.647
X230.822Y-130.175
X230.822Y-155.257
X231.458Y-98.108
X232.727Y-133.032
X236.22Y-144.145
X237.49Y-173.99
X238.58Y-130.673
X238.76Y-82.55
X239.395Y-161.607
X239.712Y-171.45
X240.03Y-77.47
X240.347Y-131.445
X240.347Y-160.972
X241.3Y-82.55
X242.252Y-160.972
X242.57Y-154.94
X242.57Y-150.812
X243.84Y-92.392
X245.745Y-144.145
X247.332Y-153.035
X247.65Y-112.712
X247.65Y-154.94
X248.638Y-107.668
X248.963Y-129.54
X248.963Y-132.08
X249.237Y-119.38
X249.237Y-121.92
X249.245Y-139.692
X253.365Y-167.64
X256.54Y-123.19
X257.175Y-177.8
X259.08Y-150.812
X259.08Y-154.94
X259.397Y-83.502
X260.985Y-92.075
X261.303Y-160.338
X267.97Y-119.697
X267.97Y-128.27
X267.97Y-150.495
X268.923Y-179.705
X271.887Y-92.075
X272.733Y-82.867
X273.05Y-123.19
X273.05Y-133.985
X273.05Y-170.815
X273.05Y-177.165
X274.32Y-104.14
X274.955Y-90.805
X275.272Y-135.572
X275.59Y-140.97
X276.86Y-173.398
X280.246Y-155.257
X281.94Y-118.745
X282.257Y-154.305
X282.575Y-64.77
X283.21Y-121.602
X283.845Y-74.295
X284.48Y-128.27
X285.115Y-71.755
X286.702Y-150.177
X288.29Y-157.48
X288.29Y-173.99
X289.56Y-157.48
X289.708Y-134.747
X295.275Y-194.31
X295.592Y-135.573
X295.91Y-127.0
X296.545Y-190.5
X298.767Y-152.718
X301.629Y-147.959
X302.577Y-144.463
X303.046Y-146.685
X306.07Y-128.27
X307.657Y-136.843
X307.975Y-153.67
X308.61Y-131.445
X309.88Y-130.175
X310.197Y-136.843
X314.96Y-125.73
X316.23Y-123.19
X317.5Y-120.65
X323.85Y-129.857
X325.438Y-132.398
X327.66Y-180.34
X331.787Y-171.132
X334.01Y-171.45
X335.28Y-83.82
X335.28Y-111.76
X337.82Y-83.82
X339.09Y-168.91
X340.36Y-83.82
X341.63Y-167.64
X344.17Y-166.37
X345.123Y-128.588
X353.06Y-134.62
X354.33Y-129.54
X361.315Y-189.865
T2
X71.755Y-122.301
X71.755Y-124.079
X71.755Y-125.857
X71.755Y-127.635
X71.755Y-129.413
X71.755Y-131.191
X71.755Y-132.969
X71.755Y-134.747
X71.755Y-136.525
X71.755Y-138.303
X71.755Y-140.081
X71.755Y-141.859
X71.755Y-143.637
X71.755Y-145.415
X71.755Y-147.193
X71.755Y-148.971
X71.755Y-150.749
X71.755Y-152.527
X71.755Y-154.305
X71.755Y-156.083
X71.755Y-157.861
X71.755Y-159.639
X71.755Y-161.417
X71.755Y-163.195
X71.755Y-164.973
X71.755Y-166.751
X71.755Y-168.529
X71.755Y-170.307
X71.755Y-172.085
X71.755Y-173.863
X71.755Y-175.641
X71.755Y-177.419
X90.805Y-122.301
X90.805Y-124.079
X90.805Y-125.857
X90.805Y-127.635
X90.805Y-129.413
X90.805Y-131.191
X90.805Y-132.969
X90.805Y-134.747
X90.805Y-136.525
X90.805Y-138.303
X90.805Y-140.081
X90.805Y-141.859
X90.805Y-143.637
X90.805Y-145.415
X90.805Y-147.193
X90.805Y-148.971
X90.805Y-150.749
X90.805Y-152.527
X90.805Y-154.305
X90.805Y-156.083
X90.805Y-157.861
X90.805Y-159.639
X90.805Y-161.417
X90.805Y-163.195
X90.805Y-164.973
X90.805Y-166.751
X90.805Y-168.529
X90.805Y-170.307
X90.805Y-172.085
X90.805Y-173.863
X90.805Y-175.641
X90.805Y-177.419
T3
X45.72Y-76.22
X45.72Y-78.72
X53.34Y-76.22
X53.34Y-78.72
X60.96Y-76.22
X60.96Y-78.72
X109.22Y-81.549
X109.22Y-83.551
X121.92Y-86.629
X121.92Y-88.631
X149.86Y-66.309
X149.86Y-68.311
X164.099Y-91.44
X166.101Y-91.44
X171.719Y-91.44
X173.721Y-91.44
X179.339Y-91.44
X181.341Y-91.44
X184.419Y-71.12
X186.421Y-71.12
X186.959Y-91.44
X188.961Y-91.44
T4
X40.64Y-87.63
X40.64Y-92.71
X40.64Y-113.03
X40.64Y-118.11
X40.64Y-128.27
X40.64Y-133.35
X40.64Y-143.51
X40.64Y-148.59
X40.64Y-158.75
X40.64Y-163.83
X43.18Y-99.06
X43.18Y-106.68
X45.72Y-86.36
X45.72Y-93.98
X45.72Y-99.06
X45.72Y-106.68
X45.72Y-111.76
X45.72Y-119.38
X45.72Y-127.0
X45.72Y-134.62
X45.72Y-142.24
X45.72Y-149.86
X45.72Y-157.48
X45.72Y-165.1
X45.72Y-168.91
X45.72Y-172.72
X48.26Y-86.36
X48.26Y-93.98
X48.26Y-111.76
X48.26Y-119.38
X48.26Y-127.0
X48.26Y-134.62
X48.26Y-142.24
X48.26Y-149.86
X48.26Y-157.48
X48.26Y-165.1
X48.26Y-184.15
X50.8Y-86.36
X50.8Y-93.98
X50.8Y-100.429
X50.8Y-105.311
X50.8Y-111.76
X50.8Y-119.38
X50.8Y-127.0
X50.8Y-134.62
X50.8Y-142.24
X50.8Y-149.86
X50.8Y-157.48
X50.8Y-165.1
X53.34Y-86.36
X53.34Y-93.98
X53.34Y-111.76
X53.34Y-119.38
X53.34Y-127.0
X53.34Y-134.62
X53.34Y-142.24
X53.34Y-149.86
X53.34Y-157.48
X53.34Y-165.1
X53.34Y-168.91
X53.34Y-172.72
X53.34Y-184.15
X55.88Y-86.36
X55.88Y-93.98
X55.88Y-100.33
X55.88Y-111.76
X55.88Y-119.38
X55.88Y-127.0
X55.88Y-134.62
X55.88Y-142.24
X55.88Y-149.86
X55.88Y-157.48
X55.88Y-165.1
X58.42Y-86.36
X58.42Y-93.98
X58.42Y-111.76
X58.42Y-119.38
X58.42Y-127.0
X58.42Y-134.62
X58.42Y-142.24
X58.42Y-149.86
X58.42Y-157.48
X58.42Y-165.1
X58.42Y-168.91
X58.42Y-172.72
X58.42Y-179.169
X58.42Y-184.051
X60.96Y-49.53
X60.96Y-57.15
X60.96Y-86.36
X60.96Y-93.98
X60.96Y-100.33
X60.96Y-111.76
X60.96Y-119.38
X60.96Y-127.0
X60.96Y-134.62
X60.96Y-142.24
X60.96Y-149.86
X60.96Y-157.48
X60.96Y-165.1
X63.5Y-49.53
X63.5Y-57.15
X63.5Y-111.76
X63.5Y-119.38
X63.5Y-127.0
X63.5Y-134.62
X63.5Y-142.24
X63.5Y-149.86
X63.5Y-157.48
X63.5Y-165.1
X63.5Y-177.8
X63.5Y-185.42
X66.04Y-111.76
X66.04Y-119.38
X66.04Y-127.0
X66.04Y-134.62
X66.04Y-142.24
X66.04Y-149.86
X66.04Y-157.48
X66.04Y-165.1
X66.04Y-168.91
X66.04Y-172.72
X68.58Y-88.9
X71.12Y-88.9
X71.12Y-93.98
X71.12Y-101.6
X71.12Y-113.03
X71.12Y-118.11
X73.66Y-88.9
X73.66Y-93.98
X73.66Y-101.6
X76.2Y-104.14
X76.2Y-109.22
X76.2Y-114.3
X76.2Y-182.88
X76.2Y-190.5
X78.74Y-77.47
X78.74Y-85.09
X78.74Y-88.9
X78.74Y-99.06
X78.74Y-104.14
X78.74Y-109.22
X78.74Y-114.3
X78.74Y-180.34
X78.74Y-185.42
X81.28Y-77.47
X81.28Y-85.09
X81.28Y-88.9
X81.28Y-99.06
X81.28Y-104.14
X81.28Y-109.22
X81.28Y-114.3
X81.28Y-185.42
X83.82Y-77.47
X83.82Y-85.09
X83.82Y-88.9
X83.82Y-99.06
X83.82Y-104.14
X83.82Y-109.22
X83.82Y-114.3
X83.82Y-180.34
X83.82Y-185.42
X86.36Y-77.47
X86.36Y-85.09
X86.36Y-88.9
X86.36Y-99.06
X86.36Y-104.14
X86.36Y-109.22
X86.36Y-114.3
X88.9Y-49.53
X88.9Y-57.15
X88.9Y-77.47
X88.9Y-85.09
X88.9Y-88.9
X88.9Y-99.06
X88.9Y-104.14
X88.9Y-109.22
X88.9Y-114.3
X91.44Y-49.53
X91.44Y-57.15
X91.44Y-77.47
X91.44Y-82.55
X91.44Y-88.9
X91.44Y-99.06
X91.44Y-104.14
X91.44Y-111.76
X93.98Y-76.2
X93.98Y-83.82
X93.98Y-88.9
X93.98Y-99.06
X93.98Y-104.14
X93.98Y-109.22
X93.98Y-149.86
X93.98Y-154.94
X96.52Y-76.2
X96.52Y-83.82
X96.52Y-88.9
X96.52Y-99.06
X96.52Y-104.14
X96.52Y-109.22
X99.06Y-77.47
X99.06Y-82.55
X99.06Y-88.9
X99.06Y-99.06
X99.06Y-104.14
X99.06Y-109.22
X99.06Y-129.54
X99.06Y-132.08
X99.06Y-134.62
X99.06Y-137.16
X99.06Y-139.7
X99.06Y-142.24
X99.06Y-144.78
X99.06Y-147.32
X99.06Y-149.86
X99.06Y-152.4
X99.06Y-154.94
X99.06Y-157.48
X99.06Y-160.02
X99.06Y-162.56
X99.06Y-165.1
X99.06Y-167.64
X99.06Y-170.18
X99.06Y-172.72
X99.06Y-175.26
X99.06Y-177.8
X101.6Y-76.2
X101.6Y-83.82
X101.6Y-88.9
X101.6Y-99.06
X102.87Y-104.14
X102.87Y-106.68
X102.87Y-109.22
X104.14Y-76.2
X104.14Y-83.82
X104.14Y-88.9
X104.14Y-99.06
X106.68Y-88.9
X106.68Y-99.06
X106.68Y-104.14
X106.68Y-109.22
X106.68Y-119.38
X106.68Y-121.92
X106.68Y-124.46
X106.68Y-127.0
X106.68Y-129.54
X106.68Y-132.08
X106.68Y-134.62
X106.68Y-137.16
X106.68Y-139.7
X106.68Y-142.24
X106.68Y-152.4
X106.68Y-154.94
X106.68Y-157.48
X106.68Y-160.02
X106.68Y-162.56
X106.68Y-165.1
X106.68Y-167.64
X106.68Y-170.18
X107.95Y-175.26
X107.95Y-180.34
X110.49Y-180.34
X113.03Y-175.26
X113.03Y-180.34
X114.3Y-76.2
X114.3Y-83.82
X114.3Y-93.98
X114.3Y-96.52
X114.3Y-99.06
X114.3Y-101.6
X114.3Y-104.14
X114.3Y-106.68
X114.3Y-109.22
X114.3Y-111.76
X114.3Y-114.3
X114.3Y-116.84
X114.3Y-119.38
X114.3Y-121.92
X114.3Y-124.46
X114.3Y-127.0
X114.3Y-129.54
X114.3Y-132.08
X114.3Y-134.62
X114.3Y-137.16
X114.3Y-139.7
X114.3Y-142.24
X114.3Y-152.4
X114.3Y-154.94
X114.3Y-157.48
X114.3Y-160.02
X114.3Y-162.56
X114.3Y-165.1
X114.3Y-167.64
X114.3Y-170.18
X115.57Y-180.34
X116.84Y-77.47
X116.84Y-82.55
X118.11Y-180.34
X119.38Y-147.32
X120.65Y-180.34
X120.65Y-185.42
X121.92Y-76.2
X121.92Y-83.82
X121.92Y-152.4
X121.92Y-154.94
X121.92Y-157.48
X121.92Y-160.02
X121.92Y-162.56
X121.92Y-165.1
X121.92Y-167.64
X121.92Y-170.18
X123.19Y-175.26
X123.19Y-180.34
X123.19Y-185.42
X124.46Y-76.2
X124.46Y-83.82
X124.46Y-147.32
X125.73Y-180.34
X125.73Y-185.42
X128.27Y-175.26
X128.27Y-180.34
X128.27Y-185.42
X129.54Y-77.47
X129.54Y-82.55
X129.54Y-93.98
X129.54Y-96.52
X129.54Y-99.06
X129.54Y-101.6
X129.54Y-104.14
X129.54Y-106.68
X129.54Y-109.22
X129.54Y-111.76
X129.54Y-114.3
X129.54Y-116.84
X129.54Y-119.38
X129.54Y-121.92
X129.54Y-124.46
X129.54Y-127.0
X129.54Y-129.54
X129.54Y-132.08
X129.54Y-134.62
X129.54Y-137.16
X129.54Y-139.7
X129.54Y-142.24
X129.54Y-152.4
X129.54Y-154.94
X129.54Y-157.48
X129.54Y-160.02
X129.54Y-162.56
X129.54Y-165.1
X129.54Y-167.64
X129.54Y-170.18
X130.81Y-180.34
X130.81Y-185.42
X132.08Y-77.47
X132.08Y-82.55
X133.35Y-185.42
X137.16Y-76.2
X137.16Y-83.82
X137.16Y-88.9
X137.16Y-91.44
X137.16Y-99.06
X137.16Y-101.6
X137.16Y-104.14
X137.16Y-106.68
X137.16Y-109.22
X137.16Y-111.76
X137.16Y-114.3
X137.16Y-127.0
X137.16Y-129.54
X137.16Y-132.08
X137.16Y-134.62
X137.16Y-137.16
X137.16Y-139.7
X137.16Y-142.24
X137.16Y-149.86
X137.16Y-154.94
X137.16Y-157.48
X137.16Y-160.02
X137.16Y-162.56
X137.16Y-165.1
X137.16Y-167.64
X137.16Y-170.18
X138.43Y-119.38
X138.43Y-147.32
X138.43Y-175.26
X139.7Y-76.2
X139.7Y-83.82
X142.24Y-76.2
X142.24Y-83.82
X143.51Y-119.38
X143.51Y-147.32
X143.51Y-175.26
X144.78Y-76.2
X144.78Y-83.82
X144.78Y-88.9
X144.78Y-91.44
X144.78Y-99.06
X144.78Y-101.6
X144.78Y-104.14
X144.78Y-106.68
X144.78Y-109.22
X144.78Y-111.76
X144.78Y-114.3
X144.78Y-127.0
X144.78Y-129.54
X144.78Y-132.08
X144.78Y-134.62
X144.78Y-137.16
X144.78Y-139.7
X144.78Y-142.24
X144.78Y-149.86
X144.78Y-154.94
X144.78Y-157.48
X144.78Y-160.02
X144.78Y-162.56
X144.78Y-165.1
X144.78Y-167.64
X144.78Y-170.18
X149.86Y-77.47
X149.86Y-82.55
X149.86Y-99.06
X149.86Y-101.6
X149.86Y-104.14
X149.86Y-106.68
X149.86Y-109.22
X149.86Y-111.76
X149.86Y-114.3
X149.86Y-127.0
X149.86Y-129.54
X149.86Y-132.08
X149.86Y-134.62
X149.86Y-137.16
X149.86Y-139.7
X149.86Y-142.24
X149.86Y-154.94
X149.86Y-157.48
X149.86Y-160.02
X149.86Y-162.56
X149.86Y-165.1
X149.86Y-167.64
X149.86Y-170.18
X151.13Y-119.38
X151.13Y-147.32
X151.13Y-175.26
X152.4Y-76.2
X152.4Y-83.82
X152.4Y-86.36
X152.4Y-88.9
X152.4Y-91.44
X154.94Y-63.5
X154.94Y-71.12
X156.21Y-119.38
X156.21Y-147.32
X156.21Y-175.26
X157.48Y-63.5
X157.48Y-71.12
X157.48Y-77.47
X157.48Y-82.55
X157.48Y-99.06
X157.48Y-101.6
X157.48Y-104.14
X157.48Y-106.68
X157.48Y-109.22
X157.48Y-111.76
X157.48Y-114.3
X157.48Y-127.0
X157.48Y-129.54
X157.48Y-132.08
X157.48Y-134.62
X157.48Y-137.16
X157.48Y-139.7
X157.48Y-142.24
X157.48Y-154.94
X157.48Y-157.48
X157.48Y-160.02
X157.48Y-162.56
X157.48Y-165.1
X157.48Y-167.64
X157.48Y-170.18
X157.48Y-180.34
X160.02Y-76.2
X160.02Y-83.82
X160.02Y-86.36
X160.02Y-88.9
X160.02Y-91.44
X162.56Y-63.5
X162.56Y-71.12
X162.56Y-76.2
X162.56Y-83.82
X162.56Y-99.06
X162.56Y-101.6
X162.56Y-104.14
X162.56Y-106.68
X162.56Y-109.22
X162.56Y-111.76
X162.56Y-114.3
X162.56Y-127.0
X162.56Y-129.54
X162.56Y-132.08
X162.56Y-134.62
X162.56Y-137.16
X162.56Y-139.7
X162.56Y-142.24
X162.56Y-154.94
X162.56Y-157.48
X162.56Y-160.02
X162.56Y-162.56
X162.56Y-165.1
X162.56Y-167.64
X162.56Y-170.18
X162.56Y-180.34
X163.83Y-119.38
X163.83Y-147.32
X163.83Y-175.26
X165.1Y-63.5
X165.1Y-71.12
X165.1Y-76.2
X165.1Y-83.82
X167.64Y-77.47
X167.64Y-82.55
X168.91Y-119.38
X168.91Y-147.32
X168.91Y-175.26
X170.18Y-71.12
X170.18Y-99.06
X170.18Y-101.6
X170.18Y-104.14
X170.18Y-106.68
X170.18Y-109.22
X170.18Y-111.76
X170.18Y-114.3
X170.18Y-127.0
X170.18Y-129.54
X170.18Y-132.08
X170.18Y-134.62
X170.18Y-137.16
X170.18Y-139.7
X170.18Y-142.24
X170.18Y-154.94
X170.18Y-157.48
X170.18Y-160.02
X170.18Y-162.56
X170.18Y-165.1
X170.18Y-167.64
X170.18Y-170.18
X172.72Y-71.12
X172.72Y-76.2
X172.72Y-83.82
X175.26Y-71.12
X175.26Y-76.2
X175.26Y-83.82
X175.26Y-99.06
X175.26Y-101.6
X175.26Y-104.14
X175.26Y-106.68
X175.26Y-109.22
X175.26Y-111.76
X175.26Y-114.3
X175.26Y-127.0
X175.26Y-129.54
X175.26Y-132.08
X175.26Y-134.62
X175.26Y-137.16
X175.26Y-139.7
X175.26Y-142.24
X175.26Y-144.78
X175.26Y-147.32
X175.26Y-149.86
X175.26Y-160.02
X175.26Y-162.56
X175.26Y-165.1
X175.26Y-167.64
X175.26Y-170.18
X175.26Y-172.72
X175.26Y-175.26
X175.26Y-177.8
X175.26Y-180.34
X175.26Y-182.88
X176.53Y-119.38
X176.53Y-154.94
X176.53Y-187.96
X177.8Y-76.2
X177.8Y-83.82
X180.34Y-67.31
X180.34Y-72.39
X180.34Y-76.2
X180.34Y-83.82
X181.61Y-119.38
X181.61Y-154.94
X181.61Y-187.96
X182.88Y-99.06
X182.88Y-101.6
X182.88Y-104.14
X182.88Y-106.68
X182.88Y-109.22
X182.88Y-111.76
X182.88Y-114.3
X182.88Y-127.0
X182.88Y-129.54
X182.88Y-132.08
X182.88Y-134.62
X182.88Y-137.16
X182.88Y-139.7
X182.88Y-142.24
X182.88Y-144.78
X182.88Y-147.32
X182.88Y-149.86
X182.88Y-160.02
X182.88Y-162.56
X182.88Y-165.1
X182.88Y-167.64
X182.88Y-170.18
X182.88Y-172.72
X182.88Y-175.26
X182.88Y-177.8
X182.88Y-180.34
X182.88Y-182.88
X185.42Y-76.2
X185.42Y-83.82
X187.96Y-76.2
X187.96Y-83.82
X190.5Y-63.5
X190.5Y-71.12
X190.5Y-76.2
X190.5Y-83.82
X190.5Y-101.6
X190.5Y-104.14
X190.5Y-106.68
X190.5Y-109.22
X190.5Y-111.76
X190.5Y-114.3
X190.5Y-116.84
X190.5Y-119.38
X190.5Y-121.92
X190.5Y-124.46
X190.5Y-127.0
X190.5Y-129.54
X190.5Y-132.08
X190.5Y-134.62
X190.5Y-137.16
X190.5Y-139.7
X190.5Y-142.24
X190.5Y-144.78
X190.5Y-147.32
X190.5Y-149.86
X190.5Y-160.02
X190.5Y-162.56
X190.5Y-165.1
X190.5Y-167.64
X190.5Y-170.18
X190.5Y-172.72
X190.5Y-175.26
X190.5Y-177.8
X190.5Y-180.34
X190.5Y-182.88
X191.77Y-187.96
X193.04Y-48.26
X193.04Y-55.88
X193.04Y-58.42
X193.04Y-63.5
X193.04Y-71.12
X193.04Y-76.2
X193.04Y-83.82
X195.58Y-76.2
X195.58Y-83.82
X195.58Y-154.94
X196.85Y-187.96
X198.12Y-48.26
X198.12Y-55.88
X198.12Y-58.42
X198.12Y-64.77
X198.12Y-69.85
X198.12Y-160.02
X198.12Y-162.56
X198.12Y-165.1
X198.12Y-167.64
X198.12Y-170.18
X198.12Y-172.72
X198.12Y-175.26
X198.12Y-177.8
X198.12Y-180.34
X198.12Y-182.88
X200.66Y-154.94
X203.2Y-49.53
X203.2Y-57.15
X203.2Y-63.5
X203.2Y-71.12
X205.74Y-63.5
X205.74Y-71.12
X205.74Y-101.6
X205.74Y-104.14
X205.74Y-106.68
X205.74Y-109.22
X205.74Y-111.76
X205.74Y-114.3
X205.74Y-116.84
X205.74Y-119.38
X205.74Y-121.92
X205.74Y-124.46
X205.74Y-127.0
X205.74Y-129.54
X205.74Y-132.08
X205.74Y-134.62
X205.74Y-137.16
X205.74Y-139.7
X205.74Y-142.24
X205.74Y-144.78
X205.74Y-147.32
X205.74Y-149.86
X205.74Y-160.02
X205.74Y-162.56
X205.74Y-165.1
X205.74Y-167.64
X205.74Y-170.18
X205.74Y-172.72
X205.74Y-175.26
X205.74Y-177.8
X207.01Y-182.88
X208.28Y-63.5
X208.28Y-71.12
X210.82Y-63.5
X210.82Y-71.12
X212.09Y-182.88
X213.36Y-63.5
X213.36Y-71.12
X213.36Y-101.6
X213.36Y-104.14
X213.36Y-106.68
X213.36Y-109.22
X213.36Y-111.76
X213.36Y-114.3
X213.36Y-116.84
X213.36Y-119.38
X213.36Y-121.92
X213.36Y-124.46
X213.36Y-127.0
X213.36Y-129.54
X213.36Y-132.08
X213.36Y-134.62
X213.36Y-137.16
X213.36Y-139.7
X213.36Y-142.24
X213.36Y-144.78
X213.36Y-147.32
X213.36Y-149.86
X213.36Y-160.02
X213.36Y-162.56
X213.36Y-165.1
X213.36Y-167.64
X213.36Y-170.18
X213.36Y-172.72
X213.36Y-175.26
X213.36Y-177.8
X214.63Y-187.96
X214.63Y-190.5
X215.9Y-63.5
X215.9Y-71.12
X218.44Y-63.5
X218.44Y-71.12
X218.44Y-154.94
X219.71Y-81.28
X219.71Y-187.96
X219.71Y-190.5
X220.98Y-63.5
X220.98Y-71.12
X220.98Y-160.02
X220.98Y-162.56
X220.98Y-165.1
X220.98Y-167.64
X220.98Y-170.18
X220.98Y-172.72
X220.98Y-175.26
X220.98Y-177.8
X222.25Y-81.28
X222.25Y-182.88
X223.52Y-63.5
X223.52Y-71.12
X223.52Y-154.94
X224.79Y-81.28
X226.06Y-63.5
X226.06Y-71.12
X227.33Y-81.28
X227.33Y-182.88
X228.6Y-101.6
X228.6Y-104.14
X228.6Y-106.68
X228.6Y-109.22
X228.6Y-111.76
X228.6Y-114.3
X228.6Y-116.84
X228.6Y-119.38
X228.6Y-121.92
X228.6Y-124.46
X228.6Y-127.0
X228.6Y-129.54
X228.6Y-132.08
X228.6Y-134.62
X228.6Y-137.16
X228.6Y-139.7
X228.6Y-142.24
X228.6Y-144.78
X228.6Y-147.32
X228.6Y-149.86
X228.6Y-160.02
X228.6Y-162.56
X228.6Y-165.1
X228.6Y-167.64
X228.6Y-170.18
X228.6Y-172.72
X228.6Y-175.26
X228.6Y-177.8
X229.87Y-81.28
X229.87Y-185.42
X229.87Y-190.5
X231.14Y-64.77
X231.14Y-69.85
X232.41Y-81.28
X232.41Y-182.88
X232.41Y-190.5
X233.68Y-97.79
X233.68Y-102.87
X234.95Y-81.28
X234.95Y-185.42
X234.95Y-190.5
X236.22Y-63.5
X236.22Y-71.12
X236.22Y-114.3
X236.22Y-116.84
X236.22Y-119.38
X236.22Y-121.92
X236.22Y-124.46
X236.22Y-127.0
X236.22Y-129.54
X236.22Y-132.08
X236.22Y-134.62
X236.22Y-137.16
X236.22Y-162.56
X236.22Y-165.1
X236.22Y-167.64
X236.22Y-170.18
X236.22Y-172.72
X236.22Y-175.26
X236.22Y-177.8
X236.22Y-180.34
X236.22Y-182.88
X237.49Y-81.28
X237.49Y-142.24
X237.49Y-187.96
X238.76Y-63.5
X238.76Y-71.12
X238.76Y-96.52
X238.76Y-104.14
X238.76Y-109.22
X240.03Y-81.28
X241.3Y-63.5
X241.3Y-71.12
X241.3Y-96.52
X241.3Y-104.14
X241.3Y-109.22
X242.57Y-81.28
X242.57Y-142.24
X242.57Y-187.96
X243.84Y-63.5
X243.84Y-71.12
X243.84Y-96.52
X243.84Y-104.14
X243.84Y-109.22
X243.84Y-114.3
X243.84Y-116.84
X243.84Y-119.38
X243.84Y-121.92
X243.84Y-124.46
X243.84Y-127.0
X243.84Y-129.54
X243.84Y-132.08
X243.84Y-134.62
X243.84Y-137.16
X243.84Y-162.56
X243.84Y-165.1
X243.84Y-167.64
X243.84Y-170.18
X243.84Y-172.72
X243.84Y-175.26
X243.84Y-177.8
X243.84Y-180.34
X243.84Y-182.88
X246.38Y-63.5
X246.38Y-71.12
X246.38Y-96.52
X246.38Y-104.14
X246.38Y-109.22
X247.65Y-177.8
X247.65Y-185.42
X248.92Y-63.5
X248.92Y-71.12
X248.92Y-96.52
X248.92Y-104.14
X248.92Y-109.22
X251.46Y-63.5
X251.46Y-71.12
X251.46Y-96.52
X251.46Y-104.14
X251.46Y-109.22
X251.46Y-114.3
X251.46Y-116.84
X251.46Y-119.38
X251.46Y-121.92
X251.46Y-124.46
X251.46Y-127.0
X251.46Y-129.54
X251.46Y-132.08
X251.46Y-134.62
X251.46Y-137.16
X251.46Y-165.1
X251.46Y-167.64
X251.46Y-170.18
X251.46Y-172.72
X251.46Y-175.26
X251.46Y-177.8
X251.46Y-180.34
X251.46Y-182.88
X252.73Y-142.24
X252.73Y-187.96
X254.0Y-96.52
X254.0Y-104.14
X254.0Y-109.22
X256.54Y-96.52
X256.54Y-104.14
X256.54Y-109.22
X257.81Y-142.24
X257.81Y-187.96
X259.08Y-96.52
X259.08Y-104.14
X259.08Y-109.22
X259.08Y-114.3
X259.08Y-116.84
X259.08Y-119.38
X259.08Y-121.92
X259.08Y-124.46
X259.08Y-127.0
X259.08Y-129.54
X259.08Y-132.08
X259.08Y-134.62
X259.08Y-137.16
X259.08Y-165.1
X259.08Y-167.64
X259.08Y-170.18
X259.08Y-172.72
X259.08Y-175.26
X259.08Y-177.8
X259.08Y-180.34
X259.08Y-182.88
X261.62Y-96.52
X261.62Y-104.14
X261.62Y-109.22
X266.7Y-102.87
X266.7Y-107.95
X266.7Y-118.11
X266.7Y-123.19
X266.7Y-133.35
X266.7Y-138.43
X266.7Y-153.67
X266.7Y-158.75
X266.7Y-168.91
X266.7Y-173.99
X266.7Y-184.15
X266.7Y-189.23
X271.78Y-96.52
X271.78Y-101.6
X271.78Y-109.22
X271.78Y-116.84
X271.78Y-124.46
X271.78Y-132.08
X271.78Y-139.7
X271.78Y-152.4
X271.78Y-160.02
X271.78Y-167.64
X271.78Y-175.26
X271.78Y-182.88
X271.78Y-190.5
X274.32Y-96.52
X274.32Y-101.6
X274.32Y-109.22
X274.32Y-116.84
X274.32Y-124.46
X274.32Y-132.08
X274.32Y-139.7
X274.32Y-152.4
X274.32Y-160.02
X274.32Y-167.64
X274.32Y-175.26
X274.32Y-182.88
X274.32Y-190.5
X276.86Y-96.52
X276.86Y-101.6
X276.86Y-109.22
X276.86Y-116.84
X276.86Y-124.46
X276.86Y-132.08
X276.86Y-139.7
X276.86Y-152.4
X276.86Y-160.02
X276.86Y-167.64
X276.86Y-175.26
X276.86Y-182.88
X276.86Y-190.5
X279.4Y-96.52
X279.4Y-101.6
X279.4Y-109.22
X279.4Y-116.84
X279.4Y-124.46
X279.4Y-132.08
X279.4Y-139.7
X279.4Y-152.4
X279.4Y-160.02
X279.4Y-167.64
X279.4Y-175.26
X279.4Y-182.88
X279.4Y-190.5
X281.94Y-96.52
X281.94Y-101.6
X281.94Y-109.22
X281.94Y-116.84
X281.94Y-124.46
X281.94Y-132.08
X281.94Y-139.7
X281.94Y-152.4
X281.94Y-160.02
X281.94Y-167.64
X281.94Y-175.26
X281.94Y-182.88
X281.94Y-190.5
X284.48Y-96.52
X284.48Y-101.6
X284.48Y-109.22
X284.48Y-116.84
X284.48Y-124.46
X284.48Y-132.08
X284.48Y-139.7
X284.48Y-152.4
X284.48Y-160.02
X284.48Y-167.64
X284.48Y-175.26
X284.48Y-182.88
X284.48Y-190.5
X287.02Y-96.52
X287.02Y-101.6
X287.02Y-109.22
X287.02Y-116.84
X287.02Y-124.46
X287.02Y-132.08
X287.02Y-139.7
X287.02Y-152.4
X287.02Y-160.02
X287.02Y-167.64
X287.02Y-175.26
X287.02Y-182.88
X287.02Y-190.5
X289.56Y-96.52
X289.56Y-101.6
X289.56Y-109.22
X289.56Y-116.84
X289.56Y-124.46
X289.56Y-132.08
X289.56Y-139.7
X289.56Y-152.4
X289.56Y-160.02
X289.56Y-167.64
X289.56Y-175.26
X289.56Y-182.88
X289.56Y-190.5
X292.1Y-96.52
X292.1Y-101.6
X292.1Y-109.22
X292.1Y-116.84
X292.1Y-124.46
X294.64Y-96.52
X294.64Y-101.6
X294.64Y-109.22
X294.64Y-116.84
X294.64Y-124.46
X297.18Y-134.62
X297.18Y-137.16
X297.18Y-139.7
X297.18Y-142.24
X297.18Y-144.78
X297.18Y-147.32
X297.18Y-149.86
X297.18Y-162.56
X297.18Y-165.1
X297.18Y-167.64
X297.18Y-170.18
X297.18Y-172.72
X297.18Y-175.26
X297.18Y-177.8
X297.18Y-180.34
X298.45Y-156.21
X299.72Y-96.52
X299.72Y-101.6
X303.53Y-156.21
X304.8Y-95.25
X304.8Y-102.87
X304.8Y-134.62
X304.8Y-137.16
X304.8Y-139.7
X304.8Y-142.24
X304.8Y-144.78
X304.8Y-147.32
X304.8Y-149.86
X304.8Y-162.56
X304.8Y-165.1
X304.8Y-167.64
X304.8Y-170.18
X304.8Y-172.72
X304.8Y-175.26
X304.8Y-177.8
X304.8Y-180.34
X307.34Y-95.25
X307.34Y-102.87
X309.88Y-95.25
X309.88Y-102.87
X309.88Y-172.72
X309.88Y-177.8
X312.42Y-95.25
X312.42Y-102.87
X312.42Y-114.3
X312.42Y-116.84
X312.42Y-119.38
X312.42Y-121.92
X312.42Y-124.46
X312.42Y-127.0
X312.42Y-129.54
X312.42Y-132.08
X312.42Y-134.62
X312.42Y-137.16
X312.42Y-139.7
X312.42Y-142.24
X312.42Y-144.78
X312.42Y-147.32
X312.42Y-149.86
X312.42Y-152.4
X314.96Y-95.25
X314.96Y-102.87
X317.5Y-95.25
X317.5Y-102.87
X317.5Y-157.48
X320.04Y-95.25
X320.04Y-102.87
X322.58Y-95.25
X322.58Y-102.87
X322.58Y-157.48
X325.12Y-95.25
X325.12Y-102.87
X327.66Y-95.25
X327.66Y-102.87
X327.66Y-114.3
X327.66Y-116.84
X327.66Y-119.38
X327.66Y-121.92
X327.66Y-124.46
X327.66Y-127.0
X327.66Y-129.54
X327.66Y-132.08
X327.66Y-134.62
X327.66Y-137.16
X327.66Y-139.7
X327.66Y-142.24
X327.66Y-144.78
X327.66Y-147.32
X327.66Y-149.86
X327.66Y-152.4
X330.2Y-157.48
X332.74Y-97.79
X332.74Y-102.87
X332.74Y-157.48
X332.74Y-165.1
X335.28Y-114.3
X335.28Y-116.84
X335.28Y-119.38
X335.28Y-121.92
X335.28Y-124.46
X335.28Y-127.0
X335.28Y-129.54
X335.28Y-132.08
X335.28Y-134.62
X335.28Y-137.16
X335.28Y-139.7
X335.28Y-142.24
X335.28Y-144.78
X335.28Y-147.32
X335.28Y-149.86
X335.28Y-152.4
X335.28Y-157.48
X337.82Y-96.52
X337.82Y-104.14
X340.36Y-96.52
X340.36Y-104.14
X340.36Y-157.48
X340.36Y-165.1
X342.9Y-96.52
X342.9Y-104.14
X345.44Y-96.52
X345.44Y-104.14
X345.44Y-157.48
X347.98Y-96.52
X347.98Y-104.14
X350.52Y-96.52
X350.52Y-104.14
X350.52Y-114.3
X350.52Y-116.84
X350.52Y-119.38
X350.52Y-121.92
X350.52Y-124.46
X350.52Y-127.0
X350.52Y-129.54
X350.52Y-132.08
X350.52Y-134.62
X350.52Y-137.16
X350.52Y-139.7
X350.52Y-142.24
X350.52Y-144.78
X350.52Y-147.32
X350.52Y-149.86
X350.52Y-152.4
X350.52Y-162.56
X350.52Y-165.1
X350.52Y-167.64
X350.52Y-170.18
X350.52Y-172.72
X350.52Y-175.26
X350.52Y-177.8
X350.52Y-180.34
X351.79Y-185.42
X353.06Y-96.52
X353.06Y-104.14
X355.6Y-96.52
X355.6Y-104.14
X356.87Y-185.42
X358.14Y-96.52
X358.14Y-104.14
X358.14Y-162.56
X358.14Y-165.1
X358.14Y-167.64
X358.14Y-170.18
X358.14Y-172.72
X358.14Y-175.26
X358.14Y-177.8
X358.14Y-180.34
X360.68Y-96.52
X360.68Y-104.14
X360.68Y-167.64
X360.68Y-170.18
X360.68Y-172.72
X360.68Y-175.26
X360.68Y-177.8
X360.68Y-180.34
T5
X123.6Y-54.22
X123.6Y-56.72
X130.4Y-54.22
X130.4Y-56.72
T6
X43.18Y-68.58
X45.72Y-68.58
X48.26Y-68.58
X50.8Y-68.58
X53.34Y-68.58
X55.88Y-68.58
X58.42Y-68.58
X60.96Y-68.58
X66.04Y-93.98
X66.04Y-96.52
X66.04Y-99.06
X76.2Y-68.621
X76.2Y-73.619
X88.9Y-67.351
X88.9Y-72.349
X93.98Y-114.3
X93.98Y-139.7
X93.98Y-142.24
X93.98Y-144.78
X96.52Y-114.3
X99.06Y-114.3
X101.6Y-66.081
X101.6Y-71.079
X102.552Y-139.7
X102.552Y-142.24
X102.552Y-144.78
X102.552Y-147.32
X102.552Y-149.86
X102.552Y-152.4
X102.552Y-154.94
X102.552Y-157.48
X102.552Y-160.02
X102.552Y-162.56
X102.552Y-165.1
X102.552Y-167.64
X102.552Y-170.18
X104.14Y-114.3
X106.68Y-114.3
X109.22Y-114.3
X114.3Y-66.081
X114.3Y-71.079
X127.0Y-66.081
X127.0Y-71.079
X133.35Y-104.14
X133.35Y-106.68
X139.7Y-66.081
X139.7Y-71.079
X222.25Y-87.63
X222.25Y-90.17
X224.79Y-87.63
X224.79Y-90.17
X227.33Y-87.63
X227.33Y-90.17
X229.87Y-87.63
X229.87Y-90.17
X232.41Y-87.63
X232.41Y-90.17
X234.95Y-87.63
X234.95Y-90.17
X237.49Y-87.63
X237.49Y-90.17
X240.03Y-87.63
X240.03Y-90.17
X247.65Y-87.63
X247.65Y-90.17
X250.19Y-87.63
X250.19Y-90.17
X288.29Y-54.61
X288.29Y-59.69
X288.29Y-77.47
X288.29Y-82.55
X290.83Y-54.61
X290.83Y-59.69
X290.83Y-77.47
X290.83Y-82.55
X293.37Y-54.61
X293.37Y-59.69
X293.37Y-77.47
X293.37Y-82.55
X295.91Y-54.61
X295.91Y-59.69
X295.91Y-77.47
X295.91Y-82.55
X298.45Y-54.61
X298.45Y-59.69
X298.45Y-77.47
X298.45Y-82.55
X298.45Y-127.0
X298.45Y-129.54
X300.99Y-54.61
X300.99Y-59.69
X300.99Y-77.47
X300.99Y-82.55
X300.99Y-127.0
X300.99Y-129.54
X303.53Y-54.61
X303.53Y-59.69
X303.53Y-77.47
X303.53Y-82.55
X303.53Y-127.0
X303.53Y-129.54
X306.07Y-54.61
X306.07Y-59.69
X306.07Y-77.47
X306.07Y-82.55
X308.61Y-54.61
X308.61Y-59.69
X308.61Y-77.47
X308.61Y-82.55
X311.15Y-54.61
X311.15Y-59.69
X311.15Y-77.47
X311.15Y-82.55
X313.69Y-54.61
X313.69Y-59.69
X313.69Y-77.47
X313.69Y-82.55
X314.93Y-180.34
X316.23Y-54.61
X316.23Y-59.69
X316.23Y-77.47
X316.23Y-82.55
X318.77Y-54.61
X318.77Y-59.69
X318.77Y-77.47
X318.77Y-82.55
X321.31Y-54.61
X321.31Y-59.69
X321.31Y-77.47
X321.31Y-82.55
X323.85Y-54.61
X323.85Y-59.69
X323.85Y-77.47
X323.85Y-82.55
X325.12Y-165.1
X326.39Y-54.61
X326.39Y-59.69
X326.39Y-77.47
X326.39Y-82.55
X327.66Y-165.1
X328.93Y-54.61
X328.93Y-59.69
X328.93Y-77.47
X328.93Y-82.55
X331.47Y-54.61
X331.47Y-59.69
X331.47Y-77.47
X331.47Y-82.55
X334.01Y-54.61
X334.01Y-59.69
X334.01Y-77.47
X334.01Y-82.55
X334.929Y-180.34
X336.55Y-54.61
X336.55Y-59.69
X336.55Y-77.47
X336.55Y-82.55
X339.09Y-54.61
X339.09Y-59.69
X339.09Y-77.47
X339.09Y-82.55
X341.63Y-54.61
X341.63Y-59.69
X341.63Y-77.47
X341.63Y-82.55
X342.9Y-172.72
X342.9Y-175.26
X344.17Y-54.61
X344.17Y-59.69
X344.17Y-77.47
X344.17Y-82.55
X345.44Y-172.72
X345.44Y-175.26
X346.71Y-54.61
X346.71Y-59.69
X346.71Y-77.47
X346.71Y-82.55
X347.98Y-172.72
X347.98Y-175.26
X349.25Y-54.61
X349.25Y-59.69
X349.25Y-77.47
X349.25Y-82.55
X363.22Y-114.3
X363.22Y-116.84
X363.22Y-119.38
X363.22Y-121.92
X363.22Y-124.46
X363.22Y-127.0
X363.22Y-129.54
X363.22Y-132.08
X363.22Y-134.62
X363.22Y-137.16
X363.22Y-139.7
X363.22Y-142.24
X363.22Y-144.78
X363.22Y-147.32
X363.22Y-149.86
X363.22Y-152.4
X363.22Y-154.94
X363.22Y-157.48
X363.22Y-160.02
X363.22Y-162.56
X365.76Y-114.3
X365.76Y-116.84
X365.76Y-119.38
X365.76Y-121.92
X365.76Y-124.46
X365.76Y-127.0
X365.76Y-129.54
X365.76Y-132.08
X365.76Y-134.62
X365.76Y-137.16
X365.76Y-139.7
X365.76Y-142.24
X365.76Y-144.78
X365.76Y-147.32
X365.76Y-149.86
X365.76Y-152.4
X365.76Y-154.94
X365.76Y-157.48
X365.76Y-160.02
X365.76Y-162.56
T7
X96.114Y-184.633
X97.485Y-187.477
X98.857Y-184.633
X100.203Y-187.477
X101.6Y-184.633
X102.972Y-187.477
X104.343Y-184.633
X105.715Y-187.477
X107.086Y-184.633
X146.914Y-184.633
X148.285Y-187.477
X149.657Y-184.633
X151.003Y-187.477
X152.4Y-184.633
X153.772Y-187.477
X155.143Y-184.633
X156.515Y-187.477
X157.886Y-184.633
X222.12Y-54.175
X222.12Y-58.465
X224.28Y-54.175
X224.28Y-58.465
X226.44Y-54.175
X226.44Y-58.465
X228.6Y-54.175
X228.6Y-58.465
X230.76Y-54.175
X230.76Y-58.465
X232.92Y-54.175
X232.92Y-58.465
X235.08Y-54.175
X235.08Y-58.465
T8
X48.26Y-179.07
X53.34Y-179.07
X55.88Y-105.41
X60.96Y-105.41
X222.25Y-187.96
X227.33Y-187.96
T9
X68.7Y-57.72
X68.7Y-62.72
X71.2Y-48.22
X71.2Y-60.22
X76.2Y-57.72
X76.2Y-62.72
X81.2Y-48.22
X81.2Y-60.22
X83.7Y-57.72
X83.7Y-62.72
X170.3Y-57.72
X170.3Y-62.72
X172.8Y-48.22
X172.8Y-60.22
X177.8Y-57.72
X177.8Y-62.72
X182.8Y-48.22
X182.8Y-60.22
X185.3Y-57.72
X185.3Y-62.72
T10
X101.6Y-54.61
X152.4Y-54.61
T11
X120.25Y-51.22
X127.0Y-50.42
X133.75Y-51.22
T12
X45.999Y-56.657
X50.8Y-53.657
T13
X96.52Y-54.61
X101.6Y-49.53
X106.68Y-54.61
X147.32Y-54.61
X152.4Y-49.53
X157.48Y-54.61
T14
X68.58Y-77.47
X68.58Y-189.23
X203.2Y-77.47
X203.2Y-189.23
X279.717Y-57.15
X279.717Y-80.01
X307.34Y-189.23
X328.93Y-107.95
X357.822Y-57.15
X357.822Y-80.01
X358.14Y-145.415
T15
X89.106Y-186.055
X114.094Y-186.055
X139.906Y-186.055
X164.894Y-186.055
X210.6Y-56.32
X246.6Y-56.32
T16
X50.8Y-59.858
T0
M30
