G04 #@! TF.GenerationSoftware,KiCad,Pcbnew,5.1.9-1.fc33*
G04 #@! TF.CreationDate,2021-02-19T03:11:38+01:00*
G04 #@! TF.ProjectId,Omega-Mainboard,4f6d6567-612d-44d6-9169-6e626f617264,rev?*
G04 #@! TF.SameCoordinates,Original*
G04 #@! TF.FileFunction,Legend,Bot*
G04 #@! TF.FilePolarity,Positive*
%FSLAX46Y46*%
G04 Gerber Fmt 4.6, Leading zero omitted, Abs format (unit mm)*
G04 Created by KiCad (PCBNEW 5.1.9-1.fc33) date 2021-02-19 03:11:38*
%MOMM*%
%LPD*%
G01*
G04 APERTURE LIST*
%ADD10C,0.150000*%
%ADD11C,0.200000*%
G04 APERTURE END LIST*
D10*
X65468500Y-60388500D02*
X67246500Y-58674000D01*
X66929000Y-58674000D02*
X67246500Y-58674000D01*
X67246500Y-58674000D02*
X67246500Y-58991500D01*
D11*
X249210000Y-91570000D02*
X249210000Y-92617619D01*
X250642380Y-91808095D02*
X249642380Y-91808095D01*
X250642380Y-92379523D01*
X249642380Y-92379523D01*
X249210000Y-92617619D02*
X249210000Y-93760476D01*
X250642380Y-92855714D02*
X249642380Y-92855714D01*
X250356666Y-93189047D01*
X249642380Y-93522380D01*
X250642380Y-93522380D01*
X249210000Y-93760476D02*
X249210000Y-94236666D01*
X250642380Y-93998571D02*
X249642380Y-93998571D01*
X246670000Y-91570000D02*
X246670000Y-92570000D01*
X248102380Y-92379523D02*
X247626190Y-92046190D01*
X248102380Y-91808095D02*
X247102380Y-91808095D01*
X247102380Y-92189047D01*
X247150000Y-92284285D01*
X247197619Y-92331904D01*
X247292857Y-92379523D01*
X247435714Y-92379523D01*
X247530952Y-92331904D01*
X247578571Y-92284285D01*
X247626190Y-92189047D01*
X247626190Y-91808095D01*
X246670000Y-92570000D02*
X246670000Y-93522380D01*
X248054761Y-92760476D02*
X248102380Y-92903333D01*
X248102380Y-93141428D01*
X248054761Y-93236666D01*
X248007142Y-93284285D01*
X247911904Y-93331904D01*
X247816666Y-93331904D01*
X247721428Y-93284285D01*
X247673809Y-93236666D01*
X247626190Y-93141428D01*
X247578571Y-92950952D01*
X247530952Y-92855714D01*
X247483333Y-92808095D01*
X247388095Y-92760476D01*
X247292857Y-92760476D01*
X247197619Y-92808095D01*
X247150000Y-92855714D01*
X247102380Y-92950952D01*
X247102380Y-93189047D01*
X247150000Y-93331904D01*
X246670000Y-93522380D02*
X246670000Y-94284285D01*
X247102380Y-93617619D02*
X247102380Y-94189047D01*
X248102380Y-93903333D02*
X247102380Y-93903333D01*
X249690000Y-84076904D02*
X249642380Y-83981666D01*
X249642380Y-83838809D01*
X249690000Y-83695952D01*
X249785238Y-83600714D01*
X249880476Y-83553095D01*
X250070952Y-83505476D01*
X250213809Y-83505476D01*
X250404285Y-83553095D01*
X250499523Y-83600714D01*
X250594761Y-83695952D01*
X250642380Y-83838809D01*
X250642380Y-83934047D01*
X250594761Y-84076904D01*
X250547142Y-84124523D01*
X250213809Y-84124523D01*
X250213809Y-83934047D01*
X250642380Y-84553095D02*
X249642380Y-84553095D01*
X250642380Y-85124523D01*
X249642380Y-85124523D01*
X250642380Y-85600714D02*
X249642380Y-85600714D01*
X249642380Y-85838809D01*
X249690000Y-85981666D01*
X249785238Y-86076904D01*
X249880476Y-86124523D01*
X250070952Y-86172142D01*
X250213809Y-86172142D01*
X250404285Y-86124523D01*
X250499523Y-86076904D01*
X250594761Y-85981666D01*
X250642380Y-85838809D01*
X250642380Y-85600714D01*
X247150000Y-84076904D02*
X247102380Y-83981666D01*
X247102380Y-83838809D01*
X247150000Y-83695952D01*
X247245238Y-83600714D01*
X247340476Y-83553095D01*
X247530952Y-83505476D01*
X247673809Y-83505476D01*
X247864285Y-83553095D01*
X247959523Y-83600714D01*
X248054761Y-83695952D01*
X248102380Y-83838809D01*
X248102380Y-83934047D01*
X248054761Y-84076904D01*
X248007142Y-84124523D01*
X247673809Y-84124523D01*
X247673809Y-83934047D01*
X248102380Y-84553095D02*
X247102380Y-84553095D01*
X248102380Y-85124523D01*
X247102380Y-85124523D01*
X248102380Y-85600714D02*
X247102380Y-85600714D01*
X247102380Y-85838809D01*
X247150000Y-85981666D01*
X247245238Y-86076904D01*
X247340476Y-86124523D01*
X247530952Y-86172142D01*
X247673809Y-86172142D01*
X247864285Y-86124523D01*
X247959523Y-86076904D01*
X248054761Y-85981666D01*
X248102380Y-85838809D01*
X248102380Y-85600714D01*
D10*
X65468500Y-60388500D02*
X65468500Y-65468500D01*
X76200000Y-60325000D02*
X76200000Y-59372500D01*
X83947000Y-64770000D02*
X83629500Y-64452500D01*
X83312000Y-64770000D02*
X83629500Y-64452500D01*
X83629500Y-64452500D02*
X83312000Y-64770000D01*
X83629500Y-66992500D02*
X83629500Y-64452500D01*
X76200000Y-59372500D02*
X76517500Y-59690000D01*
X76200000Y-59372500D02*
X75882500Y-59690000D01*
X80327500Y-64452500D02*
X76200000Y-60325000D01*
X77343000Y-64198500D02*
X77660500Y-64198500D01*
X77343000Y-64516000D02*
X77343000Y-64198500D01*
X77978000Y-64833500D02*
X77343000Y-64198500D01*
X71183500Y-62166500D02*
X71501000Y-62484000D01*
X71183500Y-62166500D02*
X70866000Y-62484000D01*
X71183500Y-64706500D02*
X71183500Y-62166500D01*
X68643500Y-64452500D02*
X68961000Y-64770000D01*
X68326000Y-64770000D02*
X68643500Y-64452500D01*
X68643500Y-66992500D02*
X68643500Y-64452500D01*
D11*
X69095880Y-67932023D02*
X68619690Y-67598690D01*
X69095880Y-67360595D02*
X68095880Y-67360595D01*
X68095880Y-67741547D01*
X68143500Y-67836785D01*
X68191119Y-67884404D01*
X68286357Y-67932023D01*
X68429214Y-67932023D01*
X68524452Y-67884404D01*
X68572071Y-67836785D01*
X68619690Y-67741547D01*
X68619690Y-67360595D01*
X69048261Y-68741547D02*
X69095880Y-68646309D01*
X69095880Y-68455833D01*
X69048261Y-68360595D01*
X68953023Y-68312976D01*
X68572071Y-68312976D01*
X68476833Y-68360595D01*
X68429214Y-68455833D01*
X68429214Y-68646309D01*
X68476833Y-68741547D01*
X68572071Y-68789166D01*
X68667309Y-68789166D01*
X68762547Y-68312976D01*
X69095880Y-69646309D02*
X68095880Y-69646309D01*
X69048261Y-69646309D02*
X69095880Y-69551071D01*
X69095880Y-69360595D01*
X69048261Y-69265357D01*
X69000642Y-69217738D01*
X68905404Y-69170119D01*
X68619690Y-69170119D01*
X68524452Y-69217738D01*
X68476833Y-69265357D01*
X68429214Y-69360595D01*
X68429214Y-69551071D01*
X68476833Y-69646309D01*
X64968500Y-66360404D02*
X64920880Y-66265166D01*
X64920880Y-66122309D01*
X64968500Y-65979452D01*
X65063738Y-65884214D01*
X65158976Y-65836595D01*
X65349452Y-65788976D01*
X65492309Y-65788976D01*
X65682785Y-65836595D01*
X65778023Y-65884214D01*
X65873261Y-65979452D01*
X65920880Y-66122309D01*
X65920880Y-66217547D01*
X65873261Y-66360404D01*
X65825642Y-66408023D01*
X65492309Y-66408023D01*
X65492309Y-66217547D01*
X65920880Y-66836595D02*
X64920880Y-66836595D01*
X65920880Y-67408023D01*
X64920880Y-67408023D01*
X65920880Y-67884214D02*
X64920880Y-67884214D01*
X64920880Y-68122309D01*
X64968500Y-68265166D01*
X65063738Y-68360404D01*
X65158976Y-68408023D01*
X65349452Y-68455642D01*
X65492309Y-68455642D01*
X65682785Y-68408023D01*
X65778023Y-68360404D01*
X65873261Y-68265166D01*
X65920880Y-68122309D01*
X65920880Y-67884214D01*
X81129166Y-64772976D02*
X81129166Y-65249166D01*
X81414880Y-64677738D02*
X80414880Y-65011071D01*
X81414880Y-65344404D01*
X80748214Y-66106309D02*
X81414880Y-66106309D01*
X80748214Y-65677738D02*
X81272023Y-65677738D01*
X81367261Y-65725357D01*
X81414880Y-65820595D01*
X81414880Y-65963452D01*
X81367261Y-66058690D01*
X81319642Y-66106309D01*
X81414880Y-67011071D02*
X80414880Y-67011071D01*
X81367261Y-67011071D02*
X81414880Y-66915833D01*
X81414880Y-66725357D01*
X81367261Y-66630119D01*
X81319642Y-66582500D01*
X81224404Y-66534880D01*
X80938690Y-66534880D01*
X80843452Y-66582500D01*
X80795833Y-66630119D01*
X80748214Y-66725357D01*
X80748214Y-66915833D01*
X80795833Y-67011071D01*
X81414880Y-67487261D02*
X80748214Y-67487261D01*
X80414880Y-67487261D02*
X80462500Y-67439642D01*
X80510119Y-67487261D01*
X80462500Y-67534880D01*
X80414880Y-67487261D01*
X80510119Y-67487261D01*
X81414880Y-68106309D02*
X81367261Y-68011071D01*
X81319642Y-67963452D01*
X81224404Y-67915833D01*
X80938690Y-67915833D01*
X80843452Y-67963452D01*
X80795833Y-68011071D01*
X80748214Y-68106309D01*
X80748214Y-68249166D01*
X80795833Y-68344404D01*
X80843452Y-68392023D01*
X80938690Y-68439642D01*
X81224404Y-68439642D01*
X81319642Y-68392023D01*
X81367261Y-68344404D01*
X81414880Y-68249166D01*
X81414880Y-68106309D01*
X71540642Y-65646023D02*
X71588261Y-65598404D01*
X71635880Y-65455547D01*
X71635880Y-65360309D01*
X71588261Y-65217452D01*
X71493023Y-65122214D01*
X71397785Y-65074595D01*
X71207309Y-65026976D01*
X71064452Y-65026976D01*
X70873976Y-65074595D01*
X70778738Y-65122214D01*
X70683500Y-65217452D01*
X70635880Y-65360309D01*
X70635880Y-65455547D01*
X70683500Y-65598404D01*
X70731119Y-65646023D01*
X71635880Y-66217452D02*
X71588261Y-66122214D01*
X71540642Y-66074595D01*
X71445404Y-66026976D01*
X71159690Y-66026976D01*
X71064452Y-66074595D01*
X71016833Y-66122214D01*
X70969214Y-66217452D01*
X70969214Y-66360309D01*
X71016833Y-66455547D01*
X71064452Y-66503166D01*
X71159690Y-66550785D01*
X71445404Y-66550785D01*
X71540642Y-66503166D01*
X71588261Y-66455547D01*
X71635880Y-66360309D01*
X71635880Y-66217452D01*
X71635880Y-66979357D02*
X70969214Y-66979357D01*
X71064452Y-66979357D02*
X71016833Y-67026976D01*
X70969214Y-67122214D01*
X70969214Y-67265071D01*
X71016833Y-67360309D01*
X71112071Y-67407928D01*
X71635880Y-67407928D01*
X71112071Y-67407928D02*
X71016833Y-67455547D01*
X70969214Y-67550785D01*
X70969214Y-67693642D01*
X71016833Y-67788880D01*
X71112071Y-67836500D01*
X71635880Y-67836500D01*
X70969214Y-68312690D02*
X71969214Y-68312690D01*
X71016833Y-68312690D02*
X70969214Y-68407928D01*
X70969214Y-68598404D01*
X71016833Y-68693642D01*
X71064452Y-68741261D01*
X71159690Y-68788880D01*
X71445404Y-68788880D01*
X71540642Y-68741261D01*
X71588261Y-68693642D01*
X71635880Y-68598404D01*
X71635880Y-68407928D01*
X71588261Y-68312690D01*
X71635880Y-69360309D02*
X71588261Y-69265071D01*
X71540642Y-69217452D01*
X71445404Y-69169833D01*
X71159690Y-69169833D01*
X71064452Y-69217452D01*
X71016833Y-69265071D01*
X70969214Y-69360309D01*
X70969214Y-69503166D01*
X71016833Y-69598404D01*
X71064452Y-69646023D01*
X71159690Y-69693642D01*
X71445404Y-69693642D01*
X71540642Y-69646023D01*
X71588261Y-69598404D01*
X71635880Y-69503166D01*
X71635880Y-69360309D01*
X71588261Y-70074595D02*
X71635880Y-70169833D01*
X71635880Y-70360309D01*
X71588261Y-70455547D01*
X71493023Y-70503166D01*
X71445404Y-70503166D01*
X71350166Y-70455547D01*
X71302547Y-70360309D01*
X71302547Y-70217452D01*
X71254928Y-70122214D01*
X71159690Y-70074595D01*
X71112071Y-70074595D01*
X71016833Y-70122214D01*
X70969214Y-70217452D01*
X70969214Y-70360309D01*
X71016833Y-70455547D01*
X71635880Y-70931738D02*
X70969214Y-70931738D01*
X70635880Y-70931738D02*
X70683500Y-70884119D01*
X70731119Y-70931738D01*
X70683500Y-70979357D01*
X70635880Y-70931738D01*
X70731119Y-70931738D01*
X70969214Y-71265071D02*
X70969214Y-71646023D01*
X70635880Y-71407928D02*
X71493023Y-71407928D01*
X71588261Y-71455547D01*
X71635880Y-71550785D01*
X71635880Y-71646023D01*
X71588261Y-72360309D02*
X71635880Y-72265071D01*
X71635880Y-72074595D01*
X71588261Y-71979357D01*
X71493023Y-71931738D01*
X71112071Y-71931738D01*
X71016833Y-71979357D01*
X70969214Y-72074595D01*
X70969214Y-72265071D01*
X71016833Y-72360309D01*
X71112071Y-72407928D01*
X71207309Y-72407928D01*
X71302547Y-71931738D01*
X78224071Y-65534928D02*
X78271690Y-65677785D01*
X78319309Y-65725404D01*
X78414547Y-65773023D01*
X78557404Y-65773023D01*
X78652642Y-65725404D01*
X78700261Y-65677785D01*
X78747880Y-65582547D01*
X78747880Y-65201595D01*
X77747880Y-65201595D01*
X77747880Y-65534928D01*
X77795500Y-65630166D01*
X77843119Y-65677785D01*
X77938357Y-65725404D01*
X78033595Y-65725404D01*
X78128833Y-65677785D01*
X78176452Y-65630166D01*
X78224071Y-65534928D01*
X78224071Y-65201595D01*
X78747880Y-66344452D02*
X78700261Y-66249214D01*
X78605023Y-66201595D01*
X77747880Y-66201595D01*
X78081214Y-67153976D02*
X78747880Y-67153976D01*
X78081214Y-66725404D02*
X78605023Y-66725404D01*
X78700261Y-66773023D01*
X78747880Y-66868261D01*
X78747880Y-67011119D01*
X78700261Y-67106357D01*
X78652642Y-67153976D01*
X78700261Y-68011119D02*
X78747880Y-67915880D01*
X78747880Y-67725404D01*
X78700261Y-67630166D01*
X78605023Y-67582547D01*
X78224071Y-67582547D01*
X78128833Y-67630166D01*
X78081214Y-67725404D01*
X78081214Y-67915880D01*
X78128833Y-68011119D01*
X78224071Y-68058738D01*
X78319309Y-68058738D01*
X78414547Y-67582547D01*
X83129500Y-67884404D02*
X83081880Y-67789166D01*
X83081880Y-67646309D01*
X83129500Y-67503452D01*
X83224738Y-67408214D01*
X83319976Y-67360595D01*
X83510452Y-67312976D01*
X83653309Y-67312976D01*
X83843785Y-67360595D01*
X83939023Y-67408214D01*
X84034261Y-67503452D01*
X84081880Y-67646309D01*
X84081880Y-67741547D01*
X84034261Y-67884404D01*
X83986642Y-67932023D01*
X83653309Y-67932023D01*
X83653309Y-67741547D01*
X84081880Y-68360595D02*
X83415214Y-68360595D01*
X83605690Y-68360595D02*
X83510452Y-68408214D01*
X83462833Y-68455833D01*
X83415214Y-68551071D01*
X83415214Y-68646309D01*
X84034261Y-69360595D02*
X84081880Y-69265357D01*
X84081880Y-69074880D01*
X84034261Y-68979642D01*
X83939023Y-68932023D01*
X83558071Y-68932023D01*
X83462833Y-68979642D01*
X83415214Y-69074880D01*
X83415214Y-69265357D01*
X83462833Y-69360595D01*
X83558071Y-69408214D01*
X83653309Y-69408214D01*
X83748547Y-68932023D01*
X84034261Y-70217738D02*
X84081880Y-70122500D01*
X84081880Y-69932023D01*
X84034261Y-69836785D01*
X83939023Y-69789166D01*
X83558071Y-69789166D01*
X83462833Y-69836785D01*
X83415214Y-69932023D01*
X83415214Y-70122500D01*
X83462833Y-70217738D01*
X83558071Y-70265357D01*
X83653309Y-70265357D01*
X83748547Y-69789166D01*
X83415214Y-70693928D02*
X84081880Y-70693928D01*
X83510452Y-70693928D02*
X83462833Y-70741547D01*
X83415214Y-70836785D01*
X83415214Y-70979642D01*
X83462833Y-71074880D01*
X83558071Y-71122500D01*
X84081880Y-71122500D01*
M02*
